<svg width="57" height="68" viewBox="0 0 57 68" fill="none" xmlns="http://www.w3.org/2000/svg">
<g filter="url(#filter0_ddddd_1142_35379)">
<rect x="6" y="1" width="45" height="45" rx="22.5" fill="#FF5A1F"/>
<path fill-rule="evenodd" clip-rule="evenodd" d="M28.5 22.5C29.2956 22.5 30.0587 22.1839 30.6213 21.6213C31.1839 21.0587 31.5 20.2956 31.5 19.5C31.5 18.7044 31.1839 17.9413 30.6213 17.3787C30.0587 16.8161 29.2956 16.5 28.5 16.5C27.7044 16.5 26.9413 16.8161 26.3787 17.3787C25.8161 17.9413 25.5 18.7044 25.5 19.5C25.5 20.2956 25.8161 21.0587 26.3787 21.6213C26.9413 22.1839 27.7044 22.5 28.5 22.5V22.5ZM21.5 31.5C21.5 30.5807 21.6811 29.6705 22.0328 28.8212C22.3846 27.9719 22.9002 27.2003 23.5503 26.5503C24.2003 25.9002 24.9719 25.3846 25.8212 25.0328C26.6705 24.6811 27.5807 24.5 28.5 24.5C29.4193 24.5 30.3295 24.6811 31.1788 25.0328C32.0281 25.3846 32.7997 25.9002 33.4497 26.5503C34.0998 27.2003 34.6154 27.9719 34.9672 28.8212C35.3189 29.6705 35.5 30.5807 35.5 31.5H21.5Z" fill="white"/>
</g>
<defs>
<filter id="filter0_ddddd_1142_35379" x="0" y="0" width="57" height="68" filterUnits="userSpaceOnUse" color-interpolation-filters="sRGB">
<feFlood flood-opacity="0" result="BackgroundImageFix"/>
<feColorMatrix in="SourceAlpha" type="matrix" values="0 0 0 0 0 0 0 0 0 0 0 0 0 0 0 0 0 0 127 0" result="hardAlpha"/>
<feOffset/>
<feColorMatrix type="matrix" values="0 0 0 0 0 0 0 0 0 0 0 0 0 0 0 0 0 0 0.2 0"/>
<feBlend mode="normal" in2="BackgroundImageFix" result="effect1_dropShadow_1142_35379"/>
<feColorMatrix in="SourceAlpha" type="matrix" values="0 0 0 0 0 0 0 0 0 0 0 0 0 0 0 0 0 0 127 0" result="hardAlpha"/>
<feOffset dy="1"/>
<feGaussianBlur stdDeviation="1"/>
<feColorMatrix type="matrix" values="0 0 0 0 0 0 0 0 0 0 0 0 0 0 0 0 0 0 0.2 0"/>
<feBlend mode="normal" in2="effect1_dropShadow_1142_35379" result="effect2_dropShadow_1142_35379"/>
<feColorMatrix in="SourceAlpha" type="matrix" values="0 0 0 0 0 0 0 0 0 0 0 0 0 0 0 0 0 0 127 0" result="hardAlpha"/>
<feOffset dy="4"/>
<feGaussianBlur stdDeviation="2"/>
<feColorMatrix type="matrix" values="0 0 0 0 0 0 0 0 0 0 0 0 0 0 0 0 0 0 0.17 0"/>
<feBlend mode="normal" in2="effect2_dropShadow_1142_35379" result="effect3_dropShadow_1142_35379"/>
<feColorMatrix in="SourceAlpha" type="matrix" values="0 0 0 0 0 0 0 0 0 0 0 0 0 0 0 0 0 0 127 0" result="hardAlpha"/>
<feOffset dy="9"/>
<feGaussianBlur stdDeviation="2.5"/>
<feColorMatrix type="matrix" values="0 0 0 0 0 0 0 0 0 0 0 0 0 0 0 0 0 0 0.1 0"/>
<feBlend mode="normal" in2="effect3_dropShadow_1142_35379" result="effect4_dropShadow_1142_35379"/>
<feColorMatrix in="SourceAlpha" type="matrix" values="0 0 0 0 0 0 0 0 0 0 0 0 0 0 0 0 0 0 127 0" result="hardAlpha"/>
<feOffset dy="16"/>
<feGaussianBlur stdDeviation="3"/>
<feColorMatrix type="matrix" values="0 0 0 0 0 0 0 0 0 0 0 0 0 0 0 0 0 0 0.03 0"/>
<feBlend mode="normal" in2="effect4_dropShadow_1142_35379" result="effect5_dropShadow_1142_35379"/>
<feBlend mode="normal" in="SourceGraphic" in2="effect5_dropShadow_1142_35379" result="shape"/>
</filter>
</defs>
</svg>
