<svg width="22" height="23" viewBox="0 0 22 23" fill="none" xmlns="http://www.w3.org/2000/svg">
<path fill-rule="evenodd" clip-rule="evenodd" d="M4 0.5C1.79086 0.5 0 2.29086 0 4.5V18.5C0 20.7091 1.79086 22.5 4 22.5H18C20.2091 22.5 22 20.7091 22 18.5V4.5C22 2.29086 20.2091 0.5 18 0.5H4ZM3.53871 10.9612L9.2206 5.27934C8.93575 6.71403 9.3493 8.25989 10.4612 9.37183L8.3333 11.5L11 14.1667C12.2881 15.4549 12.4495 17.4431 11.4842 18.9067C11.3459 19.1164 11.1845 19.3153 10.9999 19.4999L7.26926 15.7693L3.53871 12.0387C3.24117 11.7412 3.24117 11.2588 3.53871 10.9612ZM12.3006 10.1337L13.6667 11.5L11.5387 13.6279C12.6508 14.74 13.0642 16.2861 12.7791 17.7209L18.4613 12.0387C18.7588 11.7412 18.7588 11.2588 18.4613 10.9612L11 3.5L10.9722 3.52782C10.7991 3.70443 10.647 3.89382 10.5157 4.09293C9.5503 5.5566 9.7118 7.54488 11 8.83308L12.3006 10.1337Z" fill="#D61F69"/>
</svg>
